<svg width="20" height="20" viewBox="0 0 20 20" fill="none" xmlns="http://www.w3.org/2000/svg">
<circle cx="10" cy="10" r="10" fill="#F25822"/>
<path d="M11.7917 6.60492C11.7917 6.54414 11.7675 6.48586 11.7245 6.44288C11.6816 6.3999 11.6233 6.37576 11.5625 6.37576H10.4167C9.83968 6.34702 9.27477 6.54781 8.84537 6.93427C8.41597 7.32073 8.15698 7.86144 8.125 8.43826V9.67576H6.97917C6.91839 9.67576 6.8601 9.6999 6.81712 9.74288C6.77414 9.78586 6.75 9.84415 6.75 9.90492V11.0966C6.75 11.1574 6.77414 11.2157 6.81712 11.2586C6.8601 11.3016 6.91839 11.3258 6.97917 11.3258H8.125V14.3966C8.125 14.4574 8.14914 14.5157 8.19212 14.5586C8.2351 14.6016 8.29339 14.6258 8.35417 14.6258H9.72917C9.78994 14.6258 9.84823 14.6016 9.89121 14.5586C9.93419 14.5157 9.95833 14.4574 9.95833 14.3966V11.3258H11.1592C11.2101 11.3265 11.2599 11.3102 11.3006 11.2795C11.3412 11.2488 11.3705 11.2054 11.3837 11.1562L11.7137 9.96451C11.7229 9.93065 11.7241 9.89515 11.7173 9.86074C11.7106 9.82633 11.696 9.79393 11.6748 9.76604C11.6535 9.73814 11.6261 9.7155 11.5947 9.69985C11.5634 9.6842 11.5288 9.67595 11.4937 9.67576H9.95833V8.43826C9.96973 8.32481 10.023 8.21968 10.1078 8.14341C10.1925 8.06713 10.3026 8.02519 10.4167 8.02576H11.5625C11.6233 8.02576 11.6816 8.00161 11.7245 7.95864C11.7675 7.91566 11.7917 7.85737 11.7917 7.79659V6.60492Z" fill="white"/>
</svg>
